<svg xmlns="http://www.w3.org/2000/svg" viewBox="150 433.68 700 132.63"><defs/><path fill="#777777" transform="matrix(0.3208311053395462 0 0 0.3208311053395462 29.40801313879765 28.83430081735543)" d="M 713.27373809524 1675.27861142857 L 451.87373809524 1675.27861142857 C 409.97373809524 1675.27861142857 375.87373809524 1641.17861142857 375.87373809524 1599.27861142857 L 375.87373809524 1563.87861142857 L 411.67373809524 1563.87861142857 L 411.67373809524 1599.27861142857 C 411.67373809524 1621.47861142857 429.67373809524 1639.47861142857 451.87373809524 1639.47861142857 L 713.27373809524 1639.47861142857 C 735.47373809524 1639.47861142857 753.47373809524 1621.47861142857 753.47373809524 1599.27861142857 L 753.47373809524 1412.67861142857 L 789.27373809524 1412.67861142857 L 789.27373809524 1599.27861142857 C 789.27373809524 1641.17861142857 755.17373809524 1675.27861142857 713.27373809524 1675.27861142857 Z"/><path fill="#ffffff" transform="matrix(0.3208311053395462 0 0 0.3208311053395462 29.40801313879765 28.83430081735543)" d="M 411.67373809524 1524.47861142857 L 375.87373809524 1524.47861142857 L 375.87373809524 1337.87861142857 C 375.87373809524 1295.97861142857 409.97373809524 1261.87861142857 451.87373809524 1261.87861142857 L 713.27373809524 1261.87861142857 C 755.17373809524 1261.87861142857 789.27373809524 1295.97861142857 789.27373809524 1337.87861142857 L 789.27373809524 1373.27861142857 L 753.47373809524 1373.27861142857 L 753.47373809524 1337.87861142857 C 753.47373809524 1315.67861142857 735.47373809524 1297.67861142857 713.27373809524 1297.67861142857 L 451.87373809524 1297.67861142857 C 429.67373809524 1297.67861142857 411.67373809524 1315.67861142857 411.67373809524 1337.87861142857 L 411.67373809524 1524.47861142857 Z"/><path fill="#ffffff" transform="matrix(0.3208311053395462 0 0 0.3208311053395462 29.40801313879765 28.83430081735543)" d="M 458.17373809524 1485.67861142857 L 498.47373809524 1485.67861142857 L 498.47373809524 1604.47861142857 L 458.17373809524 1604.47861142857 Z"/><path fill="#ffffff" transform="matrix(0.3208311053395462 0 0 0.3208311053395462 29.40801313879765 28.83430081735543)" d="M 527.67373809524 1449.17861142857 L 567.97373809524 1449.17861142857 L 567.97373809524 1604.57861142857 L 527.67373809524 1604.57861142857 Z"/><path fill="#ffffff" transform="matrix(0.3208311053395462 0 0 0.3208311053395462 29.40801313879765 28.83430081735543)" d="M 597.17373809524 1412.57861142857 L 637.47373809524 1412.57861142857 L 637.47373809524 1604.57861142857 L 597.17373809524 1604.57861142857 Z"/><path fill="#ffffff" transform="matrix(0.3208311053395462 0 0 0.3208311053395462 29.40801313879765 28.83430081735543)" d="M 666.67373809524 1357.77861142857 L 706.97373809524 1357.77861142857 L 706.97373809524 1604.57861142857 L 666.67373809524 1604.57861142857 Z"/><path id="text" fill="#ffffff" transform="matrix(0.9515006524575902 0 0 0.9515006524575902 198.79804262722922 63.89493170943887)" d="M 171.85065142857 492.41396662857 L 156.39465142857 492.41396662857 L 143.05065142857 467.06996662857 L 133.45065142857 467.06996662857 L 133.45065142857 492.41396662857 L 120.10665142857 492.41396662857 L 120.10665142857 438.74996662857 C 120.10665142857 433.62996662857 121.29065142857 429.90196662857 123.65865142857 427.56596662857 C 126.02665142857 425.22996662857 129.99465142857 424.06196662857 135.56265142857 424.06196662857 L 146.89065142857 424.06196662857 C 153.67465142857 424.06196662857 159.06665142857 426.12596662857 163.06665142857 430.25396662857 C 167.06665142857 434.38196662857 169.06665142857 439.61396662857 169.06665142857 445.94996662857 C 169.06665142857 450.55796662857 167.86665142857 454.54196662857 165.46665142857 457.90196662857 C 163.06665142857 461.26196662857 160.10665142857 463.58196662857 156.58665142857 464.86196662857 L 171.85065142857 492.41396662857 Z M 152.98665142857 453.00596662857 C 154.81065142857 451.05396662857 155.72265142857 448.62196662857 155.72265142857 445.70996662857 C 155.72265142857 442.79796662857 154.84265142857 440.44596662857 153.08265142857 438.65396662857 C 151.32265142857 436.86196662857 148.97065142857 435.96596662857 146.02665142857 435.96596662857 L 139.40265142857 435.96596662857 C 135.43465142857 435.96596662857 133.45065142857 437.98196662857 133.45065142857 442.01396662857 L 133.45065142857 455.93396662857 L 146.02665142857 455.93396662857 C 148.84265142857 455.93396662857 151.16265142857 454.95796662857 152.98665142857 453.00596662857 Z M 227.91465142857 492.41396662857 L 203.72265142857 492.41396662857 C 196.04265142857 492.41396662857 190.65065142857 491.08596662857 187.54665142857 488.42996662857 C 184.44265142857 485.77396662857 182.89065142857 481.08596662857 182.89065142857 474.36596662857 L 182.89065142857 424.06196662857 L 227.91465142857 424.06196662857 L 227.91465142857 435.96596662857 L 196.23465142857 435.96596662857 L 196.23465142857 451.99796662857 L 218.41065142857 451.99796662857 L 217.45065142857 463.90196662857 L 196.23465142857 463.90196662857 L 196.23465142857 473.40596662857 C 196.23465142857 476.09396662857 196.84265142857 477.94996662857 198.05865142857 478.97396662857 C 199.27465142857 479.99796662857 201.48265142857 480.50996662857 204.68265142857 480.50996662857 L 227.91465142857 480.50996662857 L 227.91465142857 492.41396662857 Z M 236.74665142857 460.25396662857 L 236.74665142857 451.80596662857 C 236.74665142857 442.90996662857 239.08265142857 435.96596662857 243.75465142857 430.97396662857 C 248.42665142857 425.98196662857 254.89065142857 423.48596662857 263.14665142857 423.48596662857 C 271.40265142857 423.48596662857 278.02665142857 425.98196662857 283.01865142857 430.97396662857 C 286.53865142857 434.49396662857 288.29865142857 439.77396662857 288.29865142857 446.81396662857 L 275.81865142857 446.81396662857 C 275.81865142857 439.19796662857 271.75465142857 435.38996662857 263.62665142857 435.38996662857 C 261.19465142857 435.38996662857 259.13065142857 435.85396662857 257.43465142857 436.78196662857 C 255.73865142857 437.70996662857 254.47465142857 438.78196662857 253.64265142857 439.99796662857 C 252.81065142857 441.21396662857 252.17065142857 443.00596662857 251.72265142857 445.37396662857 C 251.27465142857 447.74196662857 251.01865142857 449.72596662857 250.95465142857 451.32596662857 C 250.89065142857 452.92596662857 250.85865142857 455.06996662857 250.85865142857 457.75796662857 C 250.85865142857 460.44596662857 250.87465142857 462.25396662857 250.90665142857 463.18196662857 C 250.93865142857 464.10996662857 251.03465142857 465.61396662857 251.19465142857 467.69396662857 C 251.35465142857 469.77396662857 251.61065142857 471.26196662857 251.96265142857 472.15796662857 C 252.31465142857 473.05396662857 252.82665142857 474.20596662857 253.49865142857 475.61396662857 C 254.17065142857 477.02196662857 255.01865142857 478.01396662857 256.04265142857 478.58996662857 C 258.66665142857 480.25396662857 261.64265142857 481.08596662857 264.97065142857 481.08596662857 C 270.53865142857 481.08596662857 274.47465142857 478.71796662857 276.77865142857 473.98196662857 L 276.77865142857 469.37396662857 L 268.52265142857 469.37396662857 L 268.52265142857 458.23796662857 L 288.20265142857 458.23796662857 L 288.20265142857 478.87796662857 C 286.21865142857 483.54996662857 283.08265142857 487.06996662857 278.79465142857 489.43796662857 C 274.50665142857 491.80596662857 269.64265142857 492.98996662857 264.20265142857 492.98996662857 C 254.53865142857 492.98996662857 247.54665142857 490.28596662857 243.22665142857 484.87796662857 C 238.90665142857 479.46996662857 236.74665142857 471.26196662857 236.74665142857 460.25396662857 Z M 315.46665142857 492.41396662857 L 302.12265142857 492.41396662857 L 302.12265142857 424.06196662857 L 315.46665142857 424.06196662857 L 315.46665142857 492.41396662857 Z M 381.51465142857 455.06996662857 L 381.51465142857 460.25396662857 C 381.51465142857 471.70996662857 379.35465142857 480.02996662857 375.03465142857 485.21396662857 C 370.71465142857 490.39796662857 363.78665142857 492.98996662857 354.25065142857 492.98996662857 C 344.71465142857 492.98996662857 337.81865142857 490.39796662857 333.56265142857 485.21396662857 C 329.30665142857 480.02996662857 327.17865142857 471.61396662857 327.17865142857 459.96596662857 L 327.17865142857 454.97396662857 C 327.17865142857 444.34996662857 329.33865142857 436.44596662857 333.65865142857 431.26196662857 C 337.97865142857 426.07796662857 344.82665142857 423.48596662857 354.20265142857 423.48596662857 C 363.57865142857 423.48596662857 370.47465142857 426.10996662857 374.89065142857 431.35796662857 C 379.30665142857 436.60596662857 381.51465142857 444.50996662857 381.51465142857 455.06996662857 Z M 368.17065142857 459.96596662857 L 368.17065142857 456.41396662857 C 368.17065142857 450.26996662857 367.40265142857 445.37396662857 365.86665142857 441.72596662857 C 364.07465142857 437.50196662857 360.23465142857 435.38996662857 354.34665142857 435.38996662857 C 348.39465142857 435.38996662857 344.52265142857 437.50196662857 342.73065142857 441.72596662857 C 341.25865142857 445.18196662857 340.52265142857 450.07796662857 340.52265142857 456.41396662857 L 340.52265142857 459.96596662857 C 340.52265142857 468.22196662857 341.67465142857 473.78996662857 343.97865142857 476.66996662857 C 344.87465142857 477.88596662857 346.20265142857 478.92596662857 347.96265142857 479.78996662857 C 349.72265142857 480.65396662857 351.83465142857 481.08596662857 354.29865142857 481.08596662857 C 356.76265142857 481.08596662857 358.85865142857 480.66996662857 360.58665142857 479.83796662857 C 362.31465142857 479.00596662857 363.65865142857 477.98196662857 364.61865142857 476.76596662857 C 365.57865142857 475.54996662857 366.31465142857 473.94996662857 366.82665142857 471.96596662857 C 367.72265142857 468.82996662857 368.17065142857 464.82996662857 368.17065142857 459.96596662857 Z M 446.50665142857 424.06196662857 L 446.50665142857 485.50196662857 C 446.50665142857 487.61396662857 445.86665142857 489.42196662857 444.58665142857 490.92596662857 C 443.30665142857 492.42996662857 441.80265142857 493.18196662857 440.07465142857 493.18196662857 C 435.65865142857 493.18196662857 432.04265142857 490.62196662857 429.22665142857 485.50196662857 L 405.61065142857 448.54196662857 L 405.61065142857 492.41396662857 L 392.26665142857 492.41396662857 L 392.26665142857 424.06196662857 L 405.13065142857 424.06196662857 L 433.16265142857 468.79796662857 L 433.16265142857 424.06196662857 L 446.50665142857 424.06196662857 Z M 502.47465142857 492.41396662857 L 482.12265142857 492.41396662857 C 474.44265142857 492.41396662857 468.89065142857 490.92596662857 465.46665142857 487.94996662857 C 462.04265142857 484.97396662857 460.33065142857 480.12596662857 460.33065142857 473.40596662857 L 460.33065142857 424.06196662857 L 473.67465142857 424.06196662857 L 473.67465142857 473.40596662857 C 473.67465142857 476.09396662857 474.28265142857 477.94996662857 475.49865142857 478.97396662857 C 476.71465142857 479.99796662857 478.92265142857 480.50996662857 482.12265142857 480.50996662857 L 502.47465142857 480.50996662857 L 502.47465142857 492.41396662857 Z M 558.15465142857 492.41396662857 L 533.96265142857 492.41396662857 C 526.28265142857 492.41396662857 520.89065142857 491.08596662857 517.78665142857 488.42996662857 C 514.68265142857 485.77396662857 513.13065142857 481.08596662857 513.13065142857 474.36596662857 L 513.13065142857 424.06196662857 L 558.15465142857 424.06196662857 L 558.15465142857 435.96596662857 L 526.47465142857 435.96596662857 L 526.47465142857 451.99796662857 L 548.65065142857 451.99796662857 L 547.69065142857 463.90196662857 L 526.47465142857 463.90196662857 L 526.47465142857 473.40596662857 C 526.47465142857 476.09396662857 527.08265142857 477.94996662857 528.29865142857 478.97396662857 C 529.51465142857 479.99796662857 531.72265142857 480.50996662857 534.92265142857 480.50996662857 L 558.15465142857 480.50996662857 L 558.15465142857 492.41396662857 Z M 624.49065142857 424.06196662857 L 624.49065142857 485.50196662857 C 624.49065142857 487.61396662857 623.85065142857 489.42196662857 622.57065142857 490.92596662857 C 621.29065142857 492.42996662857 619.78665142857 493.18196662857 618.05865142857 493.18196662857 C 613.64265142857 493.18196662857 610.02665142857 490.62196662857 607.21065142857 485.50196662857 L 583.59465142857 448.54196662857 L 583.59465142857 492.41396662857 L 570.25065142857 492.41396662857 L 570.25065142857 424.06196662857 L 583.11465142857 424.06196662857 L 611.14665142857 468.79796662857 L 611.14665142857 424.06196662857 L 624.49065142857 424.06196662857 Z M 684.39465142857 472.25396662857 C 684.39465142857 478.71796662857 682.02665142857 483.78996662857 677.29065142857 487.46996662857 C 672.55465142857 491.14996662857 666.50665142857 492.98996662857 659.14665142857 492.98996662857 C 653.32265142857 492.98996662857 647.69065142857 491.38996662857 642.25065142857 488.18996662857 C 639.56265142857 486.52596662857 637.35465142857 484.17396662857 635.62665142857 481.13396662857 C 633.89865142857 478.09396662857 633.03465142857 474.62196662857 633.03465142857 470.71796662857 L 645.13065142857 470.14196662857 C 645.13065142857 473.59796662857 646.60265142857 476.28596662857 649.54665142857 478.20596662857 C 652.49065142857 480.12596662857 655.75465142857 481.08596662857 659.33865142857 481.08596662857 C 667.33865142857 481.08596662857 671.33865142857 478.26996662857 671.33865142857 472.63796662857 C 671.33865142857 468.02996662857 668.61865142857 465.30996662857 663.17865142857 464.47796662857 L 652.04265142857 463.32596662857 C 646.47465142857 462.49396662857 642.05865142857 460.50996662857 638.79465142857 457.37396662857 C 635.53065142857 454.23796662857 633.89865142857 449.72596662857 633.89865142857 443.83796662857 C 633.89865142857 437.94996662857 636.23465142857 433.08596662857 640.90665142857 429.24596662857 C 645.57865142857 425.40596662857 651.48265142857 423.48596662857 658.61865142857 423.48596662857 C 665.75465142857 423.48596662857 671.49865142857 425.29396662857 675.85065142857 428.90996662857 C 680.20265142857 432.52596662857 682.37865142857 437.18196662857 682.37865142857 442.87796662857 L 670.47465142857 443.45396662857 C 669.38665142857 437.88596662857 665.64265142857 435.10196662857 659.24265142857 435.10196662857 C 655.33865142857 435.10196662857 652.28265142857 435.93396662857 650.07465142857 437.59796662857 C 647.86665142857 439.26196662857 646.76265142857 441.22996662857 646.76265142857 443.50196662857 C 646.76265142857 445.77396662857 647.56265142857 447.56596662857 649.16265142857 448.87796662857 C 650.76265142857 450.18996662857 652.74665142857 451.00596662857 655.11465142857 451.32596662857 L 666.05865142857 452.47796662857 C 678.28265142857 454.14196662857 684.39465142857 460.73396662857 684.39465142857 472.25396662857 Z"/></svg>